# This file uses centimeters as units for non-parametric coordinates.

mtllib kabe_heimen.mtl
g default
v 159.307945 -22.189990 -0.000007
v 168.213019 37.826035 -0.000008
v 159.980086 37.826035 -51.980692
v 151.510865 -22.189990 -49.228871
v 187.715590 37.826035 0.000010
v 178.528144 37.826035 -58.007349
v 187.715590 -22.189990 0.000010
v 178.528144 -22.189990 -58.007349
vt 0.050000 1.000000
vt 0.000000 1.000000
vt 0.000000 0.750000
vt 0.050000 0.750000
vt 0.000000 0.500000
vt 0.050000 0.500000
vt 0.000000 0.250000
vt 0.050000 0.250000
vt 0.000000 0.000000
vt 0.050000 0.000000
vn -0.977250 0.145003 0.154781
vn -0.977250 0.145003 0.154781
vn -0.977250 0.145003 0.154781
vn -0.977250 0.145003 0.154781
vn 0.000000 1.000000 0.000000
vn 0.000000 1.000000 0.000000
vn 0.000000 1.000000 0.000000
vn 0.000000 1.000000 0.000000
vn 0.987688 0.000000 -0.156434
vn 0.987688 0.000000 -0.156434
vn 0.987688 0.000000 -0.156434
vn 0.987688 0.000000 -0.156434
vn 0.000000 -1.000000 0.000000
vn 0.000000 -1.000000 0.000000
vn 0.000000 -1.000000 0.000000
vn 0.000000 -1.000000 0.000000
s off
g polySurface23 kabe_heimenn suteeji_kari
usemtl initialShadingGroup
f 4/1/1 1/2/2 2/3/3 3/4/4
f 3/4/5 2/3/6 5/5/7 6/6/8
f 6/6/9 5/5/10 7/7/11 8/8/12
f 8/8/13 7/7/14 1/9/15 4/10/16
g default
v 128.882836 -22.189990 -93.638870
v 136.087208 37.826035 -98.873151
v 98.873129 37.826035 -136.087208
v 93.638862 -22.189990 -128.882851
v 151.865375 37.826035 -110.336479
v 110.336442 37.826035 -151.865375
v 151.865375 -22.189990 -110.336479
v 110.336442 -22.189990 -151.865375
vt 0.150000 1.000000
vt 0.100000 1.000000
vt 0.100000 0.750000
vt 0.150000 0.750000
vt 0.100000 0.500000
vt 0.150000 0.500000
vt 0.100000 0.250000
vt 0.150000 0.250000
vt 0.100000 0.000000
vt 0.150000 0.000000
vn -0.699633 0.145003 0.699634
vn -0.699633 0.145003 0.699634
vn -0.699633 0.145003 0.699634
vn -0.699633 0.145003 0.699634
vn 0.000000 1.000000 0.000000
vn 0.000000 1.000000 0.000000
vn 0.000000 1.000000 0.000000
vn 0.000000 1.000000 0.000000
vn 0.707106 0.000000 -0.707107
vn 0.707106 0.000000 -0.707107
vn 0.707106 0.000000 -0.707107
vn 0.707106 0.000000 -0.707107
vn 0.000000 -1.000000 0.000000
vn 0.000000 -1.000000 0.000000
vn 0.000000 -1.000000 0.000000
vn 0.000000 -1.000000 0.000000
s off
g kabe_heimenn suteeji_kari polySurface24
usemtl initialShadingGroup
f 12/11/17 9/12/18 10/13/19 11/14/20
f 11/14/21 10/13/22 13/15/23 14/16/24
f 14/16/25 13/15/26 15/17/27 16/18/28
f 16/18/29 15/17/30 9/19/31 12/20/32
g default
v 49.228864 -22.189990 -151.510865
v 51.980684 37.826035 -159.980086
v 0.000001 37.826035 -168.213019
v -0.000000 -22.189990 -159.307960
v 58.007331 37.826035 -178.528144
v -0.000012 37.826035 -187.715648
v 58.007331 -22.189990 -178.528144
v -0.000012 -22.189990 -187.715648
vt 0.250000 1.000000
vt 0.200000 1.000000
vt 0.200000 0.750000
vt 0.250000 0.750000
vt 0.200000 0.500000
vt 0.250000 0.500000
vt 0.200000 0.250000
vt 0.250000 0.250000
vt 0.200000 0.000000
vt 0.250000 0.000000
vn -0.154781 0.145002 0.977250
vn -0.154781 0.145002 0.977250
vn -0.154781 0.145002 0.977250
vn -0.154781 0.145002 0.977250
vn 0.000000 1.000000 -0.000000
vn 0.000000 1.000000 -0.000000
vn 0.000000 1.000000 -0.000000
vn 0.000000 1.000000 -0.000000
vn 0.156435 0.000000 -0.987688
vn 0.156435 0.000000 -0.987688
vn 0.156435 0.000000 -0.987688
vn 0.156435 0.000000 -0.987688
vn 0.000000 -1.000000 -0.000000
vn 0.000000 -1.000000 -0.000000
vn 0.000000 -1.000000 -0.000000
vn 0.000000 -1.000000 -0.000000
s off
g kabe_heimenn suteeji_kari polySurface25
usemtl initialShadingGroup
f 20/21/33 17/22/34 18/23/35 19/24/36
f 19/24/37 18/23/38 21/25/39 22/26/40
f 22/26/41 21/25/42 23/27/43 24/28/44
f 24/28/45 23/27/46 17/29/47 20/30/48
g default
v -49.228871 -22.189990 -151.510880
v -51.980692 37.826035 -159.980100
v -98.873144 37.826035 -136.087223
v -93.638877 -22.189990 -128.882865
v -58.007363 37.826035 -178.528202
v -110.336486 37.826035 -151.865390
v -58.007363 -22.189990 -178.528202
v -110.336486 -22.189990 -151.865390
vt 0.350000 1.000000
vt 0.300000 1.000000
vt 0.300000 0.750000
vt 0.350000 0.750000
vt 0.300000 0.500000
vt 0.350000 0.500000
vt 0.300000 0.250000
vt 0.350000 0.250000
vt 0.300000 0.000000
vt 0.350000 0.000000
vn 0.449192 0.145003 0.881590
vn 0.449192 0.145003 0.881590
vn 0.449192 0.145003 0.881590
vn 0.449192 0.145003 0.881590
vn 0.000000 1.000000 0.000000
vn 0.000000 1.000000 0.000000
vn 0.000000 1.000000 0.000000
vn 0.000000 1.000000 0.000000
vn -0.453988 0.000000 -0.891008
vn -0.453988 0.000000 -0.891008
vn -0.453988 0.000000 -0.891008
vn -0.453988 0.000000 -0.891008
vn 0.000000 -1.000000 0.000000
vn 0.000000 -1.000000 0.000000
vn 0.000000 -1.000000 0.000000
vn 0.000000 -1.000000 0.000000
s off
g kabe_heimenn suteeji_kari polySurface26
usemtl initialShadingGroup
f 28/31/49 25/32/50 26/33/51 27/34/52
f 27/34/53 26/33/54 29/35/55 30/36/56
f 30/36/57 29/35/58 31/37/59 32/38/60
f 32/38/61 31/37/62 25/39/63 28/40/64
g default
v -128.882865 -22.189990 -93.638877
v -136.087223 37.826035 -98.873158
v -159.980115 37.826035 -51.980695
v -151.510894 -22.189990 -49.228878
v -151.865419 37.826035 -110.336486
v -178.528202 37.826035 -58.007360
v -151.865419 -22.189990 -110.336486
v -178.528202 -22.189990 -58.007360
vt 0.450000 1.000000
vt 0.400000 1.000000
vt 0.400000 0.750000
vt 0.450000 0.750000
vt 0.400000 0.500000
vt 0.450000 0.500000
vt 0.400000 0.250000
vt 0.450000 0.250000
vt 0.400000 0.000000
vt 0.450000 0.000000
vn 0.881590 0.145003 0.449192
vn 0.881590 0.145003 0.449192
vn 0.881590 0.145003 0.449192
vn 0.881590 0.145003 0.449192
vn 0.000000 1.000000 0.000000
vn 0.000000 1.000000 0.000000
vn 0.000000 1.000000 0.000000
vn 0.000000 1.000000 0.000000
vn -0.891008 0.000000 -0.453987
vn -0.891008 0.000000 -0.453987
vn -0.891008 0.000000 -0.453987
vn -0.891008 0.000000 -0.453987
vn 0.000000 -1.000000 0.000000
vn 0.000000 -1.000000 0.000000
vn 0.000000 -1.000000 0.000000
vn 0.000000 -1.000000 0.000000
s off
g kabe_heimenn suteeji_kari polySurface27
usemtl initialShadingGroup
f 36/41/65 33/42/66 34/43/67 35/44/68
f 35/44/69 34/43/70 37/45/71 38/46/72
f 38/46/73 37/45/74 39/47/75 40/48/76
f 40/48/77 39/47/78 33/49/79 36/50/80
g default
v -159.307960 -22.189990 -0.000007
v -168.213048 37.826035 -0.000008
v -159.980115 37.826035 51.980688
v -151.510894 -22.189990 49.228871
v -187.715648 37.826035 0.000010
v -178.528202 37.826035 58.007378
v -187.715648 -22.189990 0.000010
v -178.528202 -22.189990 58.007378
vt 0.550000 1.000000
vt 0.500000 1.000000
vt 0.500000 0.750000
vt 0.550000 0.750000
vt 0.500000 0.500000
vt 0.550000 0.500000
vt 0.500000 0.250000
vt 0.550000 0.250000
vt 0.500000 0.000000
vt 0.550000 0.000000
vn 0.977250 0.145003 -0.154781
vn 0.977250 0.145003 -0.154781
vn 0.977250 0.145003 -0.154781
vn 0.977250 0.145003 -0.154781
vn 0.000000 1.000000 -0.000000
vn 0.000000 1.000000 -0.000000
vn 0.000000 1.000000 -0.000000
vn 0.000000 1.000000 -0.000000
vn -0.987688 0.000000 0.156434
vn -0.987688 0.000000 0.156434
vn -0.987688 0.000000 0.156434
vn -0.987688 0.000000 0.156434
vn 0.000000 -1.000000 0.000000
vn 0.000000 -1.000000 0.000000
vn 0.000000 -1.000000 0.000000
vn 0.000000 -1.000000 0.000000
s off
g kabe_heimenn suteeji_kari polySurface28
usemtl initialShadingGroup
f 44/51/81 41/52/82 42/53/83 43/54/84
f 43/54/85 42/53/86 45/55/87 46/56/88
f 46/56/89 45/55/90 47/57/91 48/58/92
f 48/58/93 47/57/94 41/59/95 44/60/96
g default
v -128.882865 -22.189990 93.638877
v -136.087237 37.826035 98.873144
v -98.873158 37.826035 136.087237
v -93.638891 -22.189990 128.882865
v -151.865433 37.826035 110.336500
v -110.336500 37.826035 151.865448
v -151.865433 -22.189990 110.336500
v -110.336500 -22.189990 151.865448
vt 0.650000 1.000000
vt 0.600000 1.000000
vt 0.600000 0.750000
vt 0.650000 0.750000
vt 0.600000 0.500000
vt 0.650000 0.500000
vt 0.600000 0.250000
vt 0.650000 0.250000
vt 0.600000 0.000000
vt 0.650000 0.000000
vn 0.699634 0.145003 -0.699633
vn 0.699634 0.145003 -0.699633
vn 0.699634 0.145003 -0.699633
vn 0.699634 0.145003 -0.699633
vn 0.000000 1.000000 0.000000
vn 0.000000 1.000000 0.000000
vn 0.000000 1.000000 0.000000
vn 0.000000 1.000000 0.000000
vn -0.707107 0.000000 0.707107
vn -0.707107 0.000000 0.707107
vn -0.707107 0.000000 0.707107
vn -0.707107 0.000000 0.707107
vn 0.000000 -1.000000 0.000000
vn 0.000000 -1.000000 0.000000
vn 0.000000 -1.000000 0.000000
vn 0.000000 -1.000000 0.000000
s off
g kabe_heimenn suteeji_kari polySurface29
usemtl initialShadingGroup
f 52/61/97 49/62/98 50/63/99 51/64/100
f 51/64/101 50/63/102 53/65/103 54/66/104
f 54/66/105 53/65/106 55/67/107 56/68/108
f 56/68/109 55/67/110 49/69/111 52/70/112
g default
v -49.228885 -22.189990 151.510909
v -51.980706 37.826035 159.980144
v 0.000006 37.826035 168.213077
v 0.000005 -22.189990 159.308017
v -58.007378 37.826035 178.528245
v -0.000007 37.826035 187.715720
v -58.007378 -22.189990 178.528245
v -0.000007 -22.189990 187.715720
vt 0.750000 1.000000
vt 0.700000 1.000000
vt 0.700000 0.750000
vt 0.750000 0.750000
vt 0.700000 0.500000
vt 0.750000 0.500000
vt 0.700000 0.250000
vt 0.750000 0.250000
vt 0.700000 0.000000
vt 0.750000 0.000000
vn 0.154781 0.145003 -0.977250
vn 0.154781 0.145003 -0.977250
vn 0.154781 0.145003 -0.977250
vn 0.154781 0.145003 -0.977250
vn 0.000000 1.000000 0.000000
vn 0.000000 1.000000 0.000000
vn 0.000000 1.000000 0.000000
vn 0.000000 1.000000 0.000000
vn -0.156435 0.000000 0.987688
vn -0.156435 0.000000 0.987688
vn -0.156435 0.000000 0.987688
vn -0.156435 0.000000 0.987688
vn 0.000000 -1.000000 -0.000000
vn 0.000000 -1.000000 -0.000000
vn 0.000000 -1.000000 -0.000000
vn 0.000000 -1.000000 -0.000000
s off
g kabe_heimenn suteeji_kari polySurface30
usemtl initialShadingGroup
f 60/71/113 57/72/114 58/73/115 59/74/116
f 59/74/117 58/73/118 61/75/119 62/76/120
f 62/76/121 61/75/122 63/77/123 64/78/124
f 64/78/125 63/77/126 57/79/127 60/80/128
g default
v 49.228889 -22.189990 151.510923
v 51.980710 37.826035 159.980144
v 98.873187 37.826035 136.087266
v 93.638913 -22.189990 128.882894
v 58.007378 37.826035 178.528289
v 110.336529 37.826035 151.865477
v 58.007378 -22.189990 178.528289
v 110.336529 -22.189990 151.865477
vt 0.850000 1.000000
vt 0.800000 1.000000
vt 0.800000 0.750000
vt 0.850000 0.750000
vt 0.800000 0.500000
vt 0.850000 0.500000
vt 0.800000 0.250000
vt 0.850000 0.250000
vt 0.800000 0.000000
vt 0.850000 0.000000
vn -0.449192 0.145003 -0.881590
vn -0.449192 0.145003 -0.881590
vn -0.449192 0.145003 -0.881590
vn -0.449192 0.145003 -0.881590
vn 0.000000 1.000000 -0.000000
vn 0.000000 1.000000 -0.000000
vn 0.000000 1.000000 -0.000000
vn 0.000000 1.000000 -0.000000
vn 0.453988 0.000000 0.891008
vn 0.453988 0.000000 0.891008
vn 0.453988 0.000000 0.891008
vn 0.453988 0.000000 0.891008
vn 0.000000 -1.000000 0.000000
vn 0.000000 -1.000000 0.000000
vn 0.000000 -1.000000 0.000000
vn 0.000000 -1.000000 0.000000
s off
g kabe_heimenn suteeji_kari polySurface31
usemtl initialShadingGroup
f 68/81/129 65/82/130 66/83/131 67/84/132
f 67/84/133 66/83/134 69/85/135 70/86/136
f 70/86/137 69/85/138 71/87/139 72/88/140
f 72/88/141 71/87/142 65/89/143 68/90/144
g default
v 128.882923 -22.189990 93.638906
v 136.087295 37.826035 98.873180
v 159.980201 37.826035 51.980706
v 151.510952 -22.189990 49.228885
v 151.865448 37.826035 110.336551
v 178.528260 37.826035 58.007392
v 151.865448 -22.189990 110.336551
v 178.528260 -22.189990 58.007392
vt 0.950000 1.000000
vt 0.900000 1.000000
vt 0.900000 0.750000
vt 0.950000 0.750000
vt 0.900000 0.500000
vt 0.950000 0.500000
vt 0.900000 0.250000
vt 0.950000 0.250000
vt 0.900000 0.000000
vt 0.950000 0.000000
vn -0.881590 0.145003 -0.449192
vn -0.881590 0.145003 -0.449192
vn -0.881590 0.145003 -0.449192
vn -0.881590 0.145003 -0.449192
vn 0.000000 1.000000 -0.000000
vn 0.000000 1.000000 -0.000000
vn 0.000000 1.000000 -0.000000
vn 0.000000 1.000000 -0.000000
vn 0.891008 0.000000 0.453987
vn 0.891008 0.000000 0.453987
vn 0.891008 0.000000 0.453987
vn 0.891008 0.000000 0.453987
vn 0.000000 -1.000000 0.000000
vn 0.000000 -1.000000 0.000000
vn 0.000000 -1.000000 0.000000
vn 0.000000 -1.000000 0.000000
s off
g kabe_heimenn suteeji_kari polySurface32
usemtl initialShadingGroup
f 76/91/145 73/92/146 74/93/147 75/94/148
f 75/94/149 74/93/150 77/95/151 78/96/152
f 78/96/153 77/95/154 79/97/155 80/98/156
f 80/98/157 79/97/158 73/99/159 76/100/160
g default
v 159.307945 -22.189990 -0.000007
v 151.510952 -22.189990 49.228885
v 168.213019 37.826035 -0.000008
v 159.980201 37.826035 51.980706
v 187.715590 37.826035 0.000010
v 178.528260 37.826035 58.007392
v 187.715590 -22.189990 0.000010
v 178.528260 -22.189990 58.007392
vt 1.000000 1.000000
vt 0.950000 1.000000
vt 0.950000 0.750000
vt 1.000000 0.750000
vt 0.950000 0.500000
vt 1.000000 0.500000
vt 0.950000 0.250000
vt 1.000000 0.250000
vt 0.950000 0.000000
vt 1.000000 0.000000
vn -0.977250 0.145003 -0.154779
vn -0.977250 0.145003 -0.154779
vn -0.977250 0.145003 -0.154779
vn -0.977250 0.145003 -0.154779
vn 0.000000 1.000000 0.000000
vn 0.000000 1.000000 0.000000
vn 0.000000 1.000000 0.000000
vn 0.000000 1.000000 0.000000
vn 0.987689 0.000000 0.156432
vn 0.987689 0.000000 0.156432
vn 0.987689 0.000000 0.156432
vn 0.987689 0.000000 0.156432
vn 0.000000 -1.000000 0.000000
vn 0.000000 -1.000000 0.000000
vn 0.000000 -1.000000 0.000000
vn 0.000000 -1.000000 0.000000
s off
g kabe_heimenn suteeji_kari polySurface43
usemtl initialShadingGroup
f 81/101/161 82/102/162 84/103/163 83/104/164
f 83/104/165 84/103/166 86/105/167 85/106/168
f 85/106/169 86/105/170 88/107/171 87/108/172
f 87/108/173 88/107/174 82/109/175 81/110/176
g default
v 93.638913 -22.189990 128.882894
v 128.882923 -22.189990 93.638906
v 98.873187 37.826035 136.087266
v 136.087295 37.826035 98.873180
v 110.336529 37.826035 151.865477
v 151.865448 37.826035 110.336551
v 110.336529 -22.189990 151.865477
v 151.865448 -22.189990 110.336551
vt 0.900000 1.000000
vt 0.850000 1.000000
vt 0.850000 0.750000
vt 0.900000 0.750000
vt 0.850000 0.500000
vt 0.900000 0.500000
vt 0.850000 0.250000
vt 0.900000 0.250000
vt 0.850000 0.000000
vt 0.900000 0.000000
vn -0.699634 0.145003 -0.699634
vn -0.699634 0.145003 -0.699634
vn -0.699634 0.145003 -0.699634
vn -0.699634 0.145003 -0.699634
vn 0.000000 1.000000 0.000000
vn 0.000000 1.000000 0.000000
vn 0.000000 1.000000 0.000000
vn 0.000000 1.000000 0.000000
vn 0.707107 0.000000 0.707107
vn 0.707107 0.000000 0.707107
vn 0.707107 0.000000 0.707107
vn 0.707107 0.000000 0.707107
vn 0.000000 -1.000000 0.000000
vn 0.000000 -1.000000 0.000000
vn 0.000000 -1.000000 0.000000
vn 0.000000 -1.000000 0.000000
s off
g kabe_heimenn suteeji_kari polySurface42
usemtl initialShadingGroup
f 90/111/177 89/112/178 91/113/179 92/114/180
f 92/114/181 91/113/182 93/115/183 94/116/184
f 94/116/185 93/115/186 95/117/187 96/118/188
f 96/118/189 95/117/190 89/119/191 90/120/192
g default
v 0.000005 -22.189990 159.308017
v 49.228889 -22.189990 151.510923
v 0.000006 37.826035 168.213077
v 51.980710 37.826035 159.980144
v -0.000007 37.826035 187.715720
v 58.007378 37.826035 178.528289
v -0.000007 -22.189990 187.715720
v 58.007378 -22.189990 178.528289
vt 0.800000 1.000000
vt 0.750000 1.000000
vt 0.750000 0.750000
vt 0.800000 0.750000
vt 0.750000 0.500000
vt 0.800000 0.500000
vt 0.750000 0.250000
vt 0.800000 0.250000
vt 0.750000 0.000000
vt 0.800000 0.000000
vn -0.154781 0.145002 -0.977250
vn -0.154781 0.145002 -0.977250
vn -0.154781 0.145002 -0.977250
vn -0.154781 0.145002 -0.977250
vn 0.000000 1.000000 0.000000
vn 0.000000 1.000000 0.000000
vn 0.000000 1.000000 0.000000
vn 0.000000 1.000000 0.000000
vn 0.156434 0.000000 0.987688
vn 0.156434 0.000000 0.987688
vn 0.156434 0.000000 0.987688
vn 0.156434 0.000000 0.987688
vn 0.000000 -1.000000 0.000000
vn 0.000000 -1.000000 0.000000
vn 0.000000 -1.000000 0.000000
vn 0.000000 -1.000000 0.000000
s off
g kabe_heimenn suteeji_kari polySurface41
usemtl initialShadingGroup
f 98/121/193 97/122/194 99/123/195 100/124/196
f 100/124/197 99/123/198 101/125/199 102/126/200
f 102/126/201 101/125/202 103/127/203 104/128/204
f 104/128/205 103/127/206 97/129/207 98/130/208
g default
v -93.638891 -22.189990 128.882865
v -49.228885 -22.189990 151.510909
v -98.873158 37.826035 136.087237
v -51.980706 37.826035 159.980144
v -110.336500 37.826035 151.865448
v -58.007378 37.826035 178.528245
v -110.336500 -22.189990 151.865448
v -58.007378 -22.189990 178.528245
vt 0.700000 1.000000
vt 0.650000 1.000000
vt 0.650000 0.750000
vt 0.700000 0.750000
vt 0.650000 0.500000
vt 0.700000 0.500000
vt 0.650000 0.250000
vt 0.700000 0.250000
vt 0.650000 0.000000
vt 0.700000 0.000000
vn 0.449193 0.145003 -0.881589
vn 0.449193 0.145003 -0.881589
vn 0.449193 0.145003 -0.881589
vn 0.449193 0.145003 -0.881589
vn 0.000000 1.000000 0.000000
vn 0.000000 1.000000 0.000000
vn 0.000000 1.000000 0.000000
vn 0.000000 1.000000 0.000000
vn -0.453988 0.000000 0.891008
vn -0.453988 0.000000 0.891008
vn -0.453988 0.000000 0.891008
vn -0.453988 0.000000 0.891008
vn 0.000000 -1.000000 0.000000
vn 0.000000 -1.000000 0.000000
vn 0.000000 -1.000000 0.000000
vn 0.000000 -1.000000 0.000000
s off
g kabe_heimenn suteeji_kari polySurface40
usemtl initialShadingGroup
f 106/131/209 105/132/210 107/133/211 108/134/212
f 108/134/213 107/133/214 109/135/215 110/136/216
f 110/136/217 109/135/218 111/137/219 112/138/220
f 112/138/221 111/137/222 105/139/223 106/140/224
g default
v -151.510894 -22.189990 49.228871
v -128.882865 -22.189990 93.638877
v -159.980115 37.826035 51.980688
v -136.087237 37.826035 98.873144
v -178.528202 37.826035 58.007378
v -151.865433 37.826035 110.336500
v -178.528202 -22.189990 58.007378
v -151.865433 -22.189990 110.336500
vt 0.600000 1.000000
vt 0.550000 1.000000
vt 0.550000 0.750000
vt 0.600000 0.750000
vt 0.550000 0.500000
vt 0.600000 0.500000
vt 0.550000 0.250000
vt 0.600000 0.250000
vt 0.550000 0.000000
vt 0.600000 0.000000
vn 0.881590 0.145003 -0.449192
vn 0.881590 0.145003 -0.449192
vn 0.881590 0.145003 -0.449192
vn 0.881590 0.145003 -0.449192
vn 0.000000 1.000000 0.000000
vn 0.000000 1.000000 0.000000
vn 0.000000 1.000000 0.000000
vn 0.000000 1.000000 0.000000
vn -0.891008 0.000000 0.453987
vn -0.891008 0.000000 0.453987
vn -0.891008 0.000000 0.453987
vn -0.891008 0.000000 0.453987
vn 0.000000 -1.000000 0.000000
vn 0.000000 -1.000000 0.000000
vn 0.000000 -1.000000 0.000000
vn 0.000000 -1.000000 0.000000
s off
g kabe_heimenn suteeji_kari polySurface39
usemtl initialShadingGroup
f 114/141/225 113/142/226 115/143/227 116/144/228
f 116/144/229 115/143/230 117/145/231 118/146/232
f 118/146/233 117/145/234 119/147/235 120/148/236
f 120/148/237 119/147/238 113/149/239 114/150/240
g default
v -151.510894 -22.189990 -49.228878
v -159.307960 -22.189990 -0.000007
v -159.980115 37.826035 -51.980695
v -168.213048 37.826035 -0.000008
v -178.528202 37.826035 -58.007360
v -187.715648 37.826035 0.000010
v -178.528202 -22.189990 -58.007360
v -187.715648 -22.189990 0.000010
vt 0.500000 1.000000
vt 0.450000 1.000000
vt 0.450000 0.750000
vt 0.500000 0.750000
vt 0.450000 0.500000
vt 0.500000 0.500000
vt 0.450000 0.250000
vt 0.500000 0.250000
vt 0.450000 0.000000
vt 0.500000 0.000000
vn 0.977250 0.145003 0.154781
vn 0.977250 0.145003 0.154781
vn 0.977250 0.145003 0.154781
vn 0.977250 0.145003 0.154781
vn 0.000000 1.000000 0.000000
vn 0.000000 1.000000 0.000000
vn 0.000000 1.000000 0.000000
vn 0.000000 1.000000 0.000000
vn -0.987688 0.000000 -0.156434
vn -0.987688 0.000000 -0.156434
vn -0.987688 0.000000 -0.156434
vn -0.987688 0.000000 -0.156434
vn 0.000000 -1.000000 0.000000
vn 0.000000 -1.000000 0.000000
vn 0.000000 -1.000000 0.000000
vn 0.000000 -1.000000 0.000000
s off
g kabe_heimenn suteeji_kari polySurface38
usemtl initialShadingGroup
f 122/151/241 121/152/242 123/153/243 124/154/244
f 124/154/245 123/153/246 125/155/247 126/156/248
f 126/156/249 125/155/250 127/157/251 128/158/252
f 128/158/253 127/157/254 121/159/255 122/160/256
g default
v -93.638877 -22.189990 -128.882865
v -128.882865 -22.189990 -93.638877
v -98.873144 37.826035 -136.087223
v -136.087223 37.826035 -98.873158
v -110.336486 37.826035 -151.865390
v -151.865419 37.826035 -110.336486
v -110.336486 -22.189990 -151.865390
v -151.865419 -22.189990 -110.336486
vt 0.400000 1.000000
vt 0.350000 1.000000
vt 0.350000 0.750000
vt 0.400000 0.750000
vt 0.350000 0.500000
vt 0.400000 0.500000
vt 0.350000 0.250000
vt 0.400000 0.250000
vt 0.350000 0.000000
vt 0.400000 0.000000
vn 0.699634 0.145002 0.699633
vn 0.699634 0.145002 0.699633
vn 0.699634 0.145002 0.699633
vn 0.699634 0.145002 0.699633
vn 0.000000 1.000000 0.000000
vn 0.000000 1.000000 0.000000
vn 0.000000 1.000000 0.000000
vn 0.000000 1.000000 0.000000
vn -0.707107 0.000000 -0.707107
vn -0.707107 0.000000 -0.707107
vn -0.707107 0.000000 -0.707107
vn -0.707107 0.000000 -0.707107
vn 0.000000 -1.000000 0.000000
vn 0.000000 -1.000000 0.000000
vn 0.000000 -1.000000 0.000000
vn 0.000000 -1.000000 0.000000
s off
g kabe_heimenn suteeji_kari polySurface37
usemtl initialShadingGroup
f 130/161/257 129/162/258 131/163/259 132/164/260
f 132/164/261 131/163/262 133/165/263 134/166/264
f 134/166/265 133/165/266 135/167/267 136/168/268
f 136/168/269 135/167/270 129/169/271 130/170/272
g default
v -0.000000 -22.189990 -159.307960
v -49.228871 -22.189990 -151.510880
v 0.000001 37.826035 -168.213019
v -51.980692 37.826035 -159.980100
v -0.000012 37.826035 -187.715648
v -58.007363 37.826035 -178.528202
v -0.000012 -22.189990 -187.715648
v -58.007363 -22.189990 -178.528202
vt 0.300000 1.000000
vt 0.250000 1.000000
vt 0.250000 0.750000
vt 0.300000 0.750000
vt 0.250000 0.500000
vt 0.300000 0.500000
vt 0.250000 0.250000
vt 0.300000 0.250000
vt 0.250000 0.000000
vt 0.300000 0.000000
vn 0.154781 0.145002 0.977250
vn 0.154781 0.145002 0.977250
vn 0.154781 0.145002 0.977250
vn 0.154781 0.145002 0.977250
vn 0.000000 1.000000 0.000000
vn 0.000000 1.000000 0.000000
vn 0.000000 1.000000 0.000000
vn 0.000000 1.000000 0.000000
vn -0.156434 0.000000 -0.987688
vn -0.156434 0.000000 -0.987688
vn -0.156434 0.000000 -0.987688
vn -0.156434 0.000000 -0.987688
vn 0.000000 -1.000000 0.000000
vn 0.000000 -1.000000 0.000000
vn 0.000000 -1.000000 0.000000
vn 0.000000 -1.000000 0.000000
s off
g kabe_heimenn suteeji_kari polySurface36
usemtl initialShadingGroup
f 138/171/273 137/172/274 139/173/275 140/174/276
f 140/174/277 139/173/278 141/175/279 142/176/280
f 142/176/281 141/175/282 143/177/283 144/178/284
f 144/178/285 143/177/286 137/179/287 138/180/288
g default
v 93.638862 -22.189990 -128.882851
v 49.228864 -22.189990 -151.510865
v 98.873129 37.826035 -136.087208
v 51.980684 37.826035 -159.980086
v 110.336442 37.826035 -151.865375
v 58.007331 37.826035 -178.528144
v 110.336442 -22.189990 -151.865375
v 58.007331 -22.189990 -178.528144
vt 0.200000 1.000000
vt 0.150000 1.000000
vt 0.150000 0.750000
vt 0.200000 0.750000
vt 0.150000 0.500000
vt 0.200000 0.500000
vt 0.150000 0.250000
vt 0.200000 0.250000
vt 0.150000 0.000000
vt 0.200000 0.000000
vn -0.449192 0.145003 0.881590
vn -0.449192 0.145003 0.881590
vn -0.449192 0.145003 0.881590
vn -0.449192 0.145003 0.881590
vn 0.000000 1.000000 0.000000
vn 0.000000 1.000000 0.000000
vn 0.000000 1.000000 0.000000
vn 0.000000 1.000000 0.000000
vn 0.453987 0.000000 -0.891008
vn 0.453987 0.000000 -0.891008
vn 0.453987 0.000000 -0.891008
vn 0.453987 0.000000 -0.891008
vn 0.000000 -1.000000 0.000000
vn 0.000000 -1.000000 0.000000
vn 0.000000 -1.000000 0.000000
vn 0.000000 -1.000000 0.000000
s off
g kabe_heimenn suteeji_kari polySurface35
usemtl initialShadingGroup
f 146/181/289 145/182/290 147/183/291 148/184/292
f 148/184/293 147/183/294 149/185/295 150/186/296
f 150/186/297 149/185/298 151/187/299 152/188/300
f 152/188/301 151/187/302 145/189/303 146/190/304
g default
v 151.510865 -22.189990 -49.228871
v 128.882836 -22.189990 -93.638870
v 159.980086 37.826035 -51.980692
v 136.087208 37.826035 -98.873151
v 178.528144 37.826035 -58.007349
v 151.865375 37.826035 -110.336479
v 178.528144 -22.189990 -58.007349
v 151.865375 -22.189990 -110.336479
vt 0.100000 1.000000
vt 0.050000 1.000000
vt 0.050000 0.750000
vt 0.100000 0.750000
vt 0.050000 0.500000
vt 0.100000 0.500000
vt 0.050000 0.250000
vt 0.100000 0.250000
vt 0.050000 0.000000
vt 0.100000 0.000000
vn -0.881590 0.145003 0.449192
vn -0.881590 0.145003 0.449192
vn -0.881590 0.145003 0.449192
vn -0.881590 0.145003 0.449192
vn 0.000000 1.000000 -0.000000
vn 0.000000 1.000000 -0.000000
vn 0.000000 1.000000 -0.000000
vn 0.000000 1.000000 -0.000000
vn 0.891008 0.000000 -0.453987
vn 0.891008 0.000000 -0.453987
vn 0.891008 0.000000 -0.453987
vn 0.891008 0.000000 -0.453987
vn 0.000000 -1.000000 0.000000
vn 0.000000 -1.000000 0.000000
vn 0.000000 -1.000000 0.000000
vn 0.000000 -1.000000 0.000000
s off
g kabe_heimenn suteeji_kari polySurface34
usemtl initialShadingGroup
f 154/191/305 153/192/306 155/193/307 156/194/308
f 156/194/309 155/193/310 157/195/311 158/196/312
f 158/196/313 157/195/314 159/197/315 160/198/316
f 160/198/317 159/197/318 153/199/319 154/200/320
